# xmcd
#
# Track frame offsets:
#	150
#	17176
#	32084
#	50462
#	65816
#	84072
#	104386
#	120391
#	137779
#	155271
#	172794
#	190590
#	205758
#	228036
#
# Disc length: 3298 seconds
#
# Revision: 2
# Processed by: cddbd v1.5.2PL0 Copyright (c) Steve Scherf et al.
# Submitted via: EZCDAudioConverter 6.0.2.1
#
DISCID=a60ce00e
DTITLE=Vince Gill - Love Songs
DYEAR=2010
DGENRE=Country
TTITLE0=One
TTITLE1=That Friend Of Mine
TTITLE2=When Love Finds You
TTITLE3=You And You Alone
TTITLE4=Let's Make Sure We Kiss Goodbye
TTITLE5=Faint Of Heart (with Diana Krall)
TTITLE6=Luckiest Guy In The World
TTITLE7=The Rock Of Your Love
TTITLE8=If I Didn't Have You In My World
TTITLE9=The Only Love
TTITLE10=Given More Time
TTITLE11=What They All Call Love
TTITLE12=Nothing Like A Woman
TTITLE13=Whenever You Come Around
EXTD=
EXTT0=
EXTT1=
EXTT2=
EXTT3=
EXTT4=
EXTT5=
EXTT6=
EXTT7=
EXTT8=
EXTT9=
EXTT10=
EXTT11=
EXTT12=
EXTT13=
PLAYORDER=
